<svg xmlns="http://www.w3.org/2000/svg" viewBox="0 0 512 512">
  <!-- Fondo con degradado -->
  <defs>
    <linearGradient id="g" x1="0" y1="0" x2="1" y2="1">
      <stop offset="0" stop-color="#4f46e5"></stop>
      <stop offset="1" stop-color="#111827"></stop>
    </linearGradient>
    <filter id="s" x="-20%" y="-20%" width="140%" height="140%">
      <feDropShadow dx="0" dy="8" stdDeviation="12" flood-color="#000" flood-opacity=".25"></feDropShadow>
    </filter>
  </defs>
  <rect x="16" y="16" width="480" height="480" rx="56" fill="url(#g)"></rect>
  <!-- Cuerpo de la tienda -->
  <g filter="url(#s)">
    <rect x="112" y="180" width="288" height="196" rx="16" fill="#ffffff"></rect>
    <!-- Marquesina -->
    <path d="M112 180h288v52c0 0-24 24-48 24s-48-24-48-24-24 24-48 24-48-24-48-24-24 24-48 24-48-24-48-24v-52z" fill="#e5e7eb"></path>
    <!-- Franjas de la marquesina -->
    <g fill="#ffffff" opacity=".9">
      <rect x="140" y="180" width="28" height="76"></rect>
      <rect x="196" y="180" width="28" height="76"></rect>
      <rect x="252" y="180" width="28" height="76"></rect>
      <rect x="308" y="180" width="28" height="76"></rect>
      <rect x="364" y="180" width="28" height="76"></rect>
    </g>
    <!-- Puerta y ventana -->
    <rect x="320" y="256" width="56" height="120" rx="8" fill="#4f46e5"></rect>
    <rect x="144" y="256" width="104" height="72" rx="8" fill="#dbeafe"></rect>
    <rect x="144" y="336" width="104" height="16" rx="8" fill="#c7d2fe"></rect>
  </g>
</svg>
